<svg width="160" height="23" viewBox="0 0 160 23" fill="none" xmlns="http://www.w3.org/2000/svg">
<path d="M0.636133 21.8848L0.627488 0.508801L8.94749 0.505436C11.4648 0.504418 13.3957 1.01564 14.7401 2.03909C16.0845 3.06255 16.7572 4.64094 16.758 6.77428C16.7588 8.60895 16.2687 10.0171 15.2877 10.9989C14.3281 11.9593 12.9417 12.5785 11.1285 12.8566L17.8521 21.8778L14.6201 21.8791L8.21656 13.0497L3.38456 13.0517L3.38813 21.8837L0.636133 21.8848ZM3.38362 10.7157L8.40762 10.7137C10.2636 10.7129 11.6502 10.4243 12.5673 9.84797C13.5057 9.25026 13.9746 8.23674 13.974 6.8074C13.9735 5.35674 13.5357 4.34358 12.6608 3.76793C11.7859 3.17096 10.3671 2.87286 8.40445 2.87366L3.38045 2.87569L3.38362 10.7157ZM24.7858 22.195C23.2924 22.1956 21.9483 21.8868 20.7534 21.2687C19.5585 20.6505 18.6194 19.7655 17.9363 18.6138C17.2532 17.4407 16.9113 16.0222 16.9106 14.3582C16.9099 12.7582 17.24 11.3714 17.9009 10.1978C18.5618 9.02422 19.4574 8.11719 20.5878 7.47673C21.7182 6.83627 22.9768 6.51576 24.3634 6.5152C25.8354 6.51461 27.1049 6.80209 28.1718 7.37766C29.2387 7.95323 30.0603 8.73156 30.6367 9.71267C31.2131 10.6724 31.5015 11.771 31.502 13.0083C31.5022 13.3496 31.449 13.7337 31.3425 14.1604C31.2573 14.5657 31.1401 14.8965 30.9909 15.1525L19.5669 15.1571C19.674 16.1811 19.9517 17.0557 20.4 17.7808C20.8696 18.4846 21.4991 19.0177 22.2886 19.38C23.0781 19.7424 23.9848 19.9234 25.0088 19.9229C26.0115 19.9225 26.8861 19.7729 27.6327 19.4739C28.4005 19.1536 29.1364 18.7053 29.8401 18.129L30.8649 20.0806C30.0545 20.7849 29.1374 21.3186 28.1136 21.6817C27.0897 22.0234 25.9804 22.1946 24.7858 22.195ZM19.566 12.9811L28.814 12.9774C28.8353 12.9347 28.846 12.8921 28.846 12.8494C28.846 12.8067 28.8459 12.7427 28.8459 12.6574C28.8456 11.8894 28.6853 11.2175 28.3651 10.6416C28.0448 10.0444 27.554 9.58591 26.8925 9.26618C26.2524 8.94644 25.4417 8.78677 24.4603 8.78716C23.6923 8.78747 22.9671 8.95843 22.2845 9.30004C21.602 9.62032 21.0262 10.0899 20.5571 10.7087C20.088 11.3276 19.7577 12.0851 19.566 12.9811ZM32.4839 21.8719L32.4778 6.83192L34.9738 6.83091L34.9747 8.94291C35.401 8.17474 35.9874 7.57717 36.7339 7.1502C37.5018 6.72322 38.4297 6.50951 39.5177 6.50907C40.627 6.50862 41.5658 6.75358 42.334 7.24393C43.1022 7.71296 43.6678 8.37406 44.0308 9.22725C44.4997 8.33106 45.1715 7.65879 46.046 7.21043C46.9418 6.74074 47.9657 6.50566 49.1177 6.50519C50.7817 6.50452 52.1045 6.99465 53.0863 7.97559C54.068 8.95652 54.5593 10.503 54.5601 12.615L54.5639 21.863L51.9719 21.864L51.9683 12.904C51.9677 11.4534 51.6792 10.4082 51.103 9.76839C50.5267 9.10729 49.6946 8.77696 48.6066 8.7774C47.3693 8.7779 46.4201 9.26895 45.7592 10.2505C45.1196 11.2108 44.8001 12.5229 44.8008 14.1869L44.8039 21.8669L42.2119 21.868L42.2083 12.908C42.2077 11.4573 41.9192 10.4121 41.343 9.77234C40.7667 9.11124 39.9453 8.7809 38.8786 8.78133C37.6199 8.78184 36.6708 9.27289 36.0312 10.2545C35.3916 11.2147 35.0721 12.5269 35.0728 14.1909L35.0759 21.8709L32.4839 21.8719ZM63.417 22.1794C61.9237 22.18 60.5796 21.8712 59.3846 21.253C58.1897 20.6349 57.2507 19.7499 56.5676 18.5982C55.8844 17.4251 55.5425 16.0066 55.5418 14.3426C55.5412 12.7426 55.8713 11.3558 56.5322 10.1822C57.193 9.00859 58.0886 8.10156 59.2191 7.46111C60.3495 6.82065 61.608 6.50014 62.9947 6.49958C64.4667 6.49898 65.7361 6.78647 66.803 7.36204C67.8699 7.93761 68.6916 8.71594 69.268 9.69704C69.8444 10.6568 70.1328 11.7554 70.1333 12.9927C70.1334 13.334 70.0803 13.718 69.9738 14.1448C69.8886 14.5501 69.7714 14.8808 69.6222 15.1369L58.1982 15.1415C58.3052 16.1655 58.5829 17.04 59.0312 17.7652C59.5008 18.469 60.1304 19.0021 60.9199 19.3644C61.7094 19.7268 62.6161 19.9077 63.6401 19.9073C64.6428 19.9069 65.5174 19.7572 66.2639 19.4583C67.0318 19.1379 67.7676 18.6896 68.4714 18.1134L69.4962 20.065C68.6858 20.7693 67.7687 21.303 66.7448 21.6661C65.7209 22.0078 64.6117 22.1789 63.417 22.1794ZM58.1973 12.9655L67.4453 12.9618C67.4666 12.9191 67.4772 12.8764 67.4772 12.8338C67.4772 12.7911 67.4772 12.7271 67.4772 12.6418C67.4768 11.8738 67.3166 11.2018 66.9963 10.626C66.6761 10.0288 66.1852 9.57029 65.5238 9.25056C64.8837 8.93081 64.0729 8.77114 63.0916 8.77154C62.3236 8.77185 61.5983 8.94281 60.9158 9.28442C60.2333 9.6047 59.6574 10.0743 59.1884 10.6931C58.7193 11.312 58.3889 12.0694 58.1973 12.9655ZM71.1151 21.8563L71.109 6.8163L73.605 6.81529L73.6059 8.92729C74.0323 8.15911 74.6187 7.56154 75.3652 7.13458C76.133 6.7076 77.0609 6.49389 78.1489 6.49345C79.2582 6.493 80.197 6.73795 80.9652 7.22831C81.7334 7.69733 82.299 8.35844 82.662 9.21162C83.131 8.31543 83.8027 7.64316 84.6772 7.19481C85.573 6.72511 86.5969 6.49003 87.7489 6.48957C89.4129 6.48889 90.7358 6.97902 91.7175 7.95996C92.6992 8.9409 93.1905 10.4874 93.1914 12.5994L93.1951 21.8474L90.6031 21.8484L90.5995 12.8884C90.5989 11.4377 90.3105 10.3925 89.7342 9.75276C89.158 9.09166 88.3258 8.76133 87.2378 8.76177C86.0005 8.76227 85.0514 9.25332 84.3904 10.2349C83.7508 11.1952 83.4313 12.5073 83.432 14.1713L83.4351 21.8513L80.8431 21.8524L80.8395 12.8924C80.8389 11.4417 80.5505 10.3965 79.9742 9.75671C79.398 9.09561 78.5765 8.76528 77.5098 8.76571C76.2512 8.76622 75.302 9.25727 74.6624 10.2389C74.0228 11.1991 73.7033 12.5112 73.704 14.1752L73.7071 21.8552L71.1151 21.8563Z" fill="black"/>
<path d="M95.1361 21.8466L95.1275 0.470581L104.887 0.466633C106.551 0.46596 107.938 0.657399 109.048 1.04095C110.157 1.40317 110.989 2.00017 111.544 2.83194C112.121 3.64237 112.409 4.70892 112.41 6.03159C112.41 7.31159 112.144 8.34637 111.611 9.13592C111.099 9.90412 110.236 10.4591 109.02 10.801C110.47 11.1204 111.505 11.7066 112.124 12.5597C112.743 13.4128 113.053 14.5433 113.054 15.9513C113.055 18.0847 112.383 19.5996 111.04 20.4961C109.696 21.3927 107.648 21.8415 104.896 21.8426L95.1361 21.8466ZM97.8872 19.4775L104.479 19.4748C105.909 19.4742 107.039 19.3458 107.871 19.0894C108.703 18.8331 109.3 18.4382 109.663 17.9047C110.046 17.3499 110.238 16.6245 110.238 15.7285C110.237 14.8325 110.045 14.1072 109.661 13.5527C109.298 12.9982 108.7 12.6038 107.868 12.3694C107.036 12.1138 105.905 11.9862 104.476 11.9868L97.8841 11.9895L97.8872 19.4775ZM97.8832 9.68547L104.475 9.6828C106.353 9.68204 107.675 9.43617 108.443 8.9452C109.211 8.43289 109.594 7.53673 109.594 6.25673C109.593 4.97673 109.209 4.09155 108.441 3.6012C107.673 3.08951 106.35 2.83404 104.472 2.8348L97.8804 2.83747L97.8832 9.68547ZM120.971 22.1561C119.456 22.1567 118.112 21.8373 116.939 21.1978C115.765 20.5369 114.847 19.6199 114.186 18.4469C113.524 17.2738 113.192 15.8979 113.192 14.3193C113.191 12.7406 113.521 11.3645 114.182 10.1909C114.843 9.01727 115.76 8.11024 116.933 7.46976C118.106 6.80795 119.45 6.47674 120.965 6.47613C122.501 6.47551 123.845 6.80563 124.997 7.4665C126.171 8.10603 127.088 9.01232 127.75 10.1854C128.412 11.3585 128.743 12.7343 128.744 14.313C128.744 15.8917 128.414 17.2678 127.754 18.4414C127.093 19.615 126.176 20.5327 125.003 21.1945C123.851 21.835 122.507 22.1555 120.971 22.1561ZM120.97 19.8841C121.994 19.8837 122.89 19.6594 123.658 19.211C124.426 18.7627 125.023 18.1225 125.449 17.2903C125.875 16.4581 126.088 15.4661 126.088 14.3141C126.087 13.1621 125.874 12.1701 125.447 11.3383C125.02 10.5065 124.422 9.86673 123.654 9.41904C122.886 8.97136 121.99 8.74772 120.966 8.74813C119.942 8.74855 119.046 8.97291 118.278 9.42122C117.51 9.86953 116.913 10.5098 116.487 11.3419C116.06 12.1741 115.847 13.1662 115.848 14.3182C115.848 15.4702 116.062 16.4621 116.489 17.2939C116.916 18.1258 117.514 18.7655 118.282 19.2132C119.05 19.6609 119.946 19.8845 120.97 19.8841ZM136.646 22.1498C135.131 22.1504 133.787 21.8309 132.614 21.1914C131.44 20.5306 130.522 19.6136 129.861 18.4405C129.199 17.2675 128.867 15.8916 128.867 14.3129C128.866 12.7343 129.196 11.3581 129.857 10.1845C130.518 9.01093 131.435 8.1039 132.608 7.46342C133.781 6.80161 135.125 6.4704 136.64 6.46979C138.176 6.46917 139.52 6.79929 140.672 7.46016C141.846 8.09969 142.763 9.00598 143.425 10.179C144.087 11.3521 144.418 12.728 144.419 14.3066C144.419 15.8853 144.089 17.2614 143.429 18.435C142.768 19.6086 141.851 20.5264 140.678 21.1882C139.526 21.8286 138.182 22.1492 136.646 22.1498ZM136.645 19.8778C137.669 19.8774 138.565 19.653 139.333 19.2047C140.101 18.7564 140.698 18.1162 141.124 17.284C141.55 16.4518 141.763 15.4597 141.763 14.3077C141.762 13.1557 141.549 12.1638 141.122 11.332C140.695 10.5002 140.097 9.86039 139.329 9.41271C138.561 8.96502 137.665 8.74138 136.641 8.74179C135.617 8.74221 134.721 8.96657 133.953 9.41488C133.185 9.86319 132.588 10.5034 132.162 11.3356C131.735 12.1678 131.522 13.1599 131.523 14.3119C131.523 15.4639 131.737 16.4558 132.164 17.2876C132.591 18.1194 133.189 18.7592 133.957 19.2069C134.725 19.6546 135.621 19.8782 136.645 19.8778ZM145.409 21.8262L145.4 0.450248L147.992 0.449199L147.998 14.2092L155.579 6.78213L158.779 6.78084L152.381 12.9594L159.105 21.8207L155.905 21.822L150.558 14.7202L147.999 17.1852L148.001 21.8252L145.409 21.8262Z" fill="#A57865"/>
</svg>
