<svg width="242" height="48" viewBox="0 0 242 48" fill="none" xmlns="http://www.w3.org/2000/svg">
<g clip-path="url(#clip0_222_283)">
<rect y="20" width="20" height="20" fill="#A28776" style="fill:#A28776;fill:color(display-p3 0.6353 0.5294 0.4627);fill-opacity:1;"/>
<circle cx="31" cy="31" r="10" fill="#E4C7BA" style="fill:#E4C7BA;fill:color(display-p3 0.8941 0.7804 0.7294);fill-opacity:1;"/>
<path d="M0 0H30C35.5228 0 40 4.47715 40 10V10C40 15.5228 35.5228 20 30 20H0V0Z" fill="#A57865" style="fill:#A57865;fill:color(display-p3 0.6471 0.4706 0.3961);fill-opacity:1;"/>
<path d="M52.92 38.4C51.0533 38.4 49.3733 38.0133 47.88 37.24C46.3867 36.4667 45.2133 35.36 44.36 33.92C43.5067 32.4533 43.08 30.68 43.08 28.6C43.08 26.6 43.4933 24.8667 44.32 23.4C45.1467 21.9333 46.2667 20.8 47.68 20C49.0933 19.2 50.6667 18.8 52.4 18.8C54.24 18.8 55.8267 19.16 57.16 19.88C58.4933 20.6 59.52 21.5733 60.24 22.8C60.96 24 61.32 25.3733 61.32 26.92C61.32 27.3467 61.2533 27.8267 61.12 28.36C61.0133 28.8667 60.8667 29.28 60.68 29.6H46.4C46.5333 30.88 46.88 31.9733 47.44 32.88C48.0267 33.76 48.8133 34.4267 49.8 34.88C50.7867 35.3333 51.92 35.56 53.2 35.56C54.4533 35.56 55.5467 35.3733 56.48 35C57.44 34.6 58.36 34.04 59.24 33.32L60.52 35.76C59.5067 36.64 58.36 37.3067 57.08 37.76C55.8 38.1867 54.4133 38.4 52.92 38.4ZM46.4 26.88H57.96C57.9867 26.8267 58 26.7733 58 26.72C58 26.6667 58 26.5867 58 26.48C58 25.52 57.8 24.68 57.4 23.96C57 23.2133 56.3867 22.64 55.56 22.24C54.76 21.84 53.7467 21.64 52.52 21.64C51.56 21.64 50.6533 21.8533 49.8 22.28C48.9467 22.68 48.2267 23.2667 47.64 24.04C47.0533 24.8133 46.64 25.76 46.4 26.88ZM62.5428 38V19.2H65.6628V21.84C66.1961 20.88 66.9295 20.1333 67.8628 19.6C68.8228 19.0667 69.9828 18.8 71.3428 18.8C72.7295 18.8 73.9028 19.1067 74.8628 19.72C75.8228 20.3067 76.5295 21.1333 76.9828 22.2C77.5695 21.08 78.4095 20.24 79.5028 19.68C80.6228 19.0933 81.9028 18.8 83.3428 18.8C85.4228 18.8 87.0761 19.4133 88.3028 20.64C89.5295 21.8667 90.1428 23.8 90.1428 26.44V38H86.9028V26.8C86.9028 24.9867 86.5428 23.68 85.8228 22.88C85.1028 22.0533 84.0628 21.64 82.7028 21.64C81.1561 21.64 79.9695 22.2533 79.1428 23.48C78.3428 24.68 77.9428 26.32 77.9428 28.4V38H74.7028V26.8C74.7028 24.9867 74.3428 23.68 73.6228 22.88C72.9028 22.0533 71.8761 21.64 70.5428 21.64C68.9695 21.64 67.7828 22.2533 66.9828 23.48C66.1828 24.68 65.7828 26.32 65.7828 28.4V38H62.5428ZM101.209 38.4C99.3424 38.4 97.6624 38.0133 96.1691 37.24C94.6757 36.4667 93.5024 35.36 92.6491 33.92C91.7957 32.4533 91.3691 30.68 91.3691 28.6C91.3691 26.6 91.7824 24.8667 92.6091 23.4C93.4357 21.9333 94.5557 20.8 95.9691 20C97.3824 19.2 98.9557 18.8 100.689 18.8C102.529 18.8 104.116 19.16 105.449 19.88C106.782 20.6 107.809 21.5733 108.529 22.8C109.249 24 109.609 25.3733 109.609 26.92C109.609 27.3467 109.542 27.8267 109.409 28.36C109.302 28.8667 109.156 29.28 108.969 29.6H94.6891C94.8224 30.88 95.1691 31.9733 95.7291 32.88C96.3157 33.76 97.1024 34.4267 98.0891 34.88C99.0757 35.3333 100.209 35.56 101.489 35.56C102.742 35.56 103.836 35.3733 104.769 35C105.729 34.6 106.649 34.04 107.529 33.32L108.809 35.76C107.796 36.64 106.649 37.3067 105.369 37.76C104.089 38.1867 102.702 38.4 101.209 38.4ZM94.6891 26.88H106.249C106.276 26.8267 106.289 26.7733 106.289 26.72C106.289 26.6667 106.289 26.5867 106.289 26.48C106.289 25.52 106.089 24.68 105.689 23.96C105.289 23.2133 104.676 22.64 103.849 22.24C103.049 21.84 102.036 21.64 100.809 21.64C99.8491 21.64 98.9424 21.8533 98.0891 22.28C97.2357 22.68 96.5157 23.2667 95.9291 24.04C95.3424 24.8133 94.9291 25.76 94.6891 26.88ZM110.832 38V19.2H113.952V21.84C114.485 20.88 115.219 20.1333 116.152 19.6C117.112 19.0667 118.272 18.8 119.632 18.8C121.019 18.8 122.192 19.1067 123.152 19.72C124.112 20.3067 124.819 21.1333 125.272 22.2C125.859 21.08 126.699 20.24 127.792 19.68C128.912 19.0933 130.192 18.8 131.632 18.8C133.712 18.8 135.365 19.4133 136.592 20.64C137.819 21.8667 138.432 23.8 138.432 26.44V38H135.192V26.8C135.192 24.9867 134.832 23.68 134.112 22.88C133.392 22.0533 132.352 21.64 130.992 21.64C129.445 21.64 128.259 22.2533 127.432 23.48C126.632 24.68 126.232 26.32 126.232 28.4V38H122.992V26.8C122.992 24.9867 122.632 23.68 121.912 22.88C121.192 22.0533 120.165 21.64 118.832 21.64C117.259 21.64 116.072 22.2533 115.272 23.48C114.472 24.68 114.072 26.32 114.072 28.4V38H110.832Z" fill="black" style="fill:black;fill-opacity:1;"/>
<path d="M140.858 38V11.28H153.058C155.138 11.28 156.871 11.52 158.258 12C159.645 12.4533 160.685 13.2 161.378 14.24C162.098 15.2533 162.458 16.5867 162.458 18.24C162.458 19.84 162.125 21.1333 161.458 22.12C160.818 23.08 159.738 23.7733 158.218 24.2C160.031 24.6 161.325 25.3333 162.098 26.4C162.871 27.4667 163.258 28.88 163.258 30.64C163.258 33.3067 162.418 35.2 160.738 36.32C159.058 37.44 156.498 38 153.058 38H140.858ZM144.298 35.04H152.538C154.325 35.04 155.738 34.88 156.778 34.56C157.818 34.24 158.565 33.7467 159.018 33.08C159.498 32.3867 159.738 31.48 159.738 30.36C159.738 29.24 159.498 28.3333 159.018 27.64C158.565 26.9467 157.818 26.4533 156.778 26.16C155.738 25.84 154.325 25.68 152.538 25.68H144.298V35.04ZM144.298 22.8H152.538C154.885 22.8 156.538 22.4933 157.498 21.88C158.458 21.24 158.938 20.12 158.938 18.52C158.938 16.92 158.458 15.8133 157.498 15.2C156.538 14.56 154.885 14.24 152.538 14.24H144.298V22.8ZM176.952 38.4C174.178 38.4 171.778 37.8133 169.752 36.64C167.725 35.44 166.165 33.8133 165.072 31.76C163.978 29.68 163.432 27.3067 163.432 24.64C163.432 21.9733 163.978 19.6133 165.072 17.56C166.165 15.48 167.725 13.8533 169.752 12.68C171.778 11.48 174.178 10.88 176.952 10.88C179.752 10.88 182.152 11.48 184.152 12.68C186.178 13.8533 187.738 15.48 188.832 17.56C189.925 19.6133 190.472 21.9733 190.472 24.64C190.472 27.3067 189.925 29.68 188.832 31.76C187.738 33.8133 186.178 35.44 184.152 36.64C182.152 37.8133 179.752 38.4 176.952 38.4ZM176.952 35.36C179.005 35.36 180.778 34.92 182.272 34.04C183.765 33.1333 184.912 31.88 185.712 30.28C186.538 28.6533 186.952 26.7733 186.952 24.64C186.952 22.5067 186.538 20.64 185.712 19.04C184.912 17.4133 183.765 16.16 182.272 15.28C180.778 14.3733 179.005 13.92 176.952 13.92C174.898 13.92 173.125 14.3733 171.632 15.28C170.138 16.16 168.978 17.4133 168.152 19.04C167.352 20.64 166.952 22.5067 166.952 24.64C166.952 26.7733 167.352 28.6533 168.152 30.28C168.978 31.88 170.138 33.1333 171.632 34.04C173.125 34.92 174.898 35.36 176.952 35.36ZM204.163 38.4C201.389 38.4 198.989 37.8133 196.963 36.64C194.936 35.44 193.376 33.8133 192.283 31.76C191.189 29.68 190.643 27.3067 190.643 24.64C190.643 21.9733 191.189 19.6133 192.283 17.56C193.376 15.48 194.936 13.8533 196.963 12.68C198.989 11.48 201.389 10.88 204.163 10.88C206.963 10.88 209.363 11.48 211.363 12.68C213.389 13.8533 214.949 15.48 216.043 17.56C217.136 19.6133 217.683 21.9733 217.683 24.64C217.683 27.3067 217.136 29.68 216.043 31.76C214.949 33.8133 213.389 35.44 211.363 36.64C209.363 37.8133 206.963 38.4 204.163 38.4ZM204.163 35.36C206.216 35.36 207.989 34.92 209.483 34.04C210.976 33.1333 212.123 31.88 212.923 30.28C213.749 28.6533 214.163 26.7733 214.163 24.64C214.163 22.5067 213.749 20.64 212.923 19.04C212.123 17.4133 210.976 16.16 209.483 15.28C207.989 14.3733 206.216 13.92 204.163 13.92C202.109 13.92 200.336 14.3733 198.842 15.28C197.349 16.16 196.189 17.4133 195.363 19.04C194.563 20.64 194.163 22.5067 194.163 24.64C194.163 26.7733 194.563 28.6533 195.363 30.28C196.189 31.88 197.349 33.1333 198.842 34.04C200.336 34.92 202.109 35.36 204.163 35.36ZM219.053 38V11.28H222.493V25.32L235.293 11.28H239.493L228.733 23L239.893 38H235.693L226.453 25.48L222.493 29.8V38H219.053Z" fill="#A57865" style="fill:#A57865;fill:color(display-p3 0.6471 0.4706 0.3961);fill-opacity:1;"/>
</g>
<defs>
<clipPath id="clip0_222_283">
<rect width="242" height="48" fill="white" style="fill:white;fill-opacity:1;"/>
</clipPath>
</defs>
</svg>
