<svg width="196" height="24" viewBox="0 0 196 24" fill="none" xmlns="http://www.w3.org/2000/svg">
<path d="M14.2926 22.9504C13.9407 23.1745 13.6047 23.244 13.2846 23.1588C12.9646 23.0736 12.6925 22.855 12.4684 22.5031L7.50504 14.2491L3.02504 14.2509L3.02799 21.5469C3.02836 22.4429 2.58054 22.8911 1.68454 22.8914C0.788538 22.8918 0.340357 22.444 0.339994 21.548L0.332306 2.53999C0.331944 1.64399 0.779763 1.19581 1.67576 1.19545L9.16376 1.19242C11.1158 1.19163 12.6093 1.71369 13.6444 2.75861C14.6901 3.79285 15.2134 5.28598 15.2142 7.23798L15.2146 8.19798C15.2153 9.89397 14.8212 11.2488 14.0322 12.2625C13.2433 13.2654 12.1022 13.8899 10.609 14.1358L14.8038 21.1261C15.2095 21.8726 15.039 22.4807 14.2926 22.9504ZM3.02396 11.5629L9.16796 11.5604C10.384 11.5599 11.2479 11.3036 11.7596 10.7914C12.2714 10.2792 12.5271 9.41506 12.5266 8.19906L12.5262 7.23906C12.5257 6.03373 12.2694 5.17517 11.7572 4.66337C11.245 4.14091 10.3808 3.87993 9.16485 3.88042L3.02085 3.88291L3.02396 11.5629ZM22.2577 15.8751L22.258 16.6431C22.2586 18.0191 22.5096 18.9577 23.0112 19.4588C23.5127 19.9493 24.4568 20.1942 25.8434 20.1937L28.4674 20.1926C29.5554 20.1922 30.3607 20.0905 30.8833 19.8876C31.4059 19.6848 31.7524 19.3273 31.9229 18.8152C32.0401 18.4098 32.1999 18.1004 32.4025 17.887C32.6158 17.6736 32.9357 17.5668 33.3624 17.5666C33.8104 17.5665 34.1518 17.6837 34.3865 17.9182C34.6213 18.1528 34.6961 18.4941 34.6109 18.9421C34.3768 20.2649 33.7479 21.2518 32.7241 21.9029C31.7004 22.554 30.2819 22.8799 28.4685 22.8806L25.8445 22.8817C23.7219 22.8825 22.143 22.3712 21.1079 21.3476C20.0835 20.324 19.5709 18.7562 19.57 16.6442L19.5685 12.9322C19.5676 10.7669 20.079 9.17734 21.1026 8.16359C22.1368 7.13918 23.7153 6.6372 25.838 6.65768L28.462 6.65662C30.5953 6.65575 32.1742 7.16712 33.1986 8.1907C34.223 9.20362 34.7356 10.7821 34.7365 12.9261L34.7372 14.5261C34.7375 15.4221 34.2897 15.8703 33.3937 15.8706L22.2577 15.8751ZM25.8391 9.34568C24.4524 9.32491 23.5085 9.56529 23.0074 10.0668C22.5062 10.5684 22.2559 11.5231 22.2565 12.9311L22.2566 13.1871L32.0486 13.1832L32.0485 12.9272C32.0479 11.5298 31.7969 10.5859 31.2954 10.0955C30.8045 9.59434 29.8604 9.34405 28.4631 9.34462L25.8391 9.34568ZM58.3752 6.64452C60.3912 6.6437 61.8367 7.11779 62.7118 8.06676C63.5975 9.01574 64.0408 10.5889 64.0417 12.7862L64.0452 21.5222C64.0456 22.4182 63.5978 22.8664 62.7018 22.8668C61.8058 22.8671 61.3576 22.4193 61.3572 21.5233L61.3537 12.7873C61.3532 11.5713 61.1182 10.6914 60.6486 10.1476C60.1898 9.60379 59.4323 9.33209 58.3763 9.33252L57.0643 9.33305C55.8483 9.33354 54.9791 9.60589 54.4566 10.1501C53.9342 10.6943 53.6732 11.5744 53.6737 12.7904L53.6772 21.5264C53.6776 22.4224 53.2298 22.8706 52.3338 22.871C51.4378 22.8713 50.9896 22.4235 50.9892 21.5275L50.9857 12.7915C50.9852 11.5755 50.7502 10.6956 50.2806 10.1518C49.8218 9.60798 49.0643 9.33629 48.0083 9.33671L46.6963 9.33724C45.4803 9.33773 44.6111 9.61009 44.0886 10.1543C43.5662 10.6985 43.3052 11.5786 43.3057 12.7946L43.3092 21.5306C43.3096 22.4266 42.8618 22.8748 41.9658 22.8752C41.0698 22.8755 40.6216 22.4277 40.6212 21.5317L40.6158 7.9957C40.6154 7.0997 41.0632 6.65152 41.9592 6.65116C42.8552 6.6508 43.3034 7.09861 43.3038 7.99461L43.3041 8.73061C43.8691 7.99439 44.4876 7.46614 45.1594 7.14586C45.842 6.81492 46.6526 6.64926 47.5912 6.64888L48.0072 6.64871C49.3299 6.64818 50.37 6.83442 51.1275 7.20745C51.8849 7.56981 52.4612 8.16158 52.8562 8.98275C53.4212 8.13986 54.0183 7.54228 54.6474 7.19003C55.2873 6.8271 56.0926 6.64544 57.0632 6.64505L58.3752 6.64452ZM72.2889 15.8549L72.2893 16.6229C72.2898 17.9989 72.5409 18.9375 73.0424 19.4386C73.5439 19.9291 74.488 20.174 75.8747 20.1734L78.4987 20.1724C79.5867 20.1719 80.392 20.0703 80.9146 19.8674C81.4372 19.6645 81.7837 19.3071 81.9541 18.795C82.0713 18.3896 82.2312 18.0802 82.4338 17.8668C82.647 17.6534 82.967 17.5466 83.3936 17.5464C83.8416 17.5462 84.183 17.6634 84.4178 17.898C84.6525 18.1326 84.7273 18.4739 84.6422 18.9219C84.4081 20.2447 83.7791 21.2316 82.7554 21.8827C81.7317 22.5337 80.3131 22.8596 78.4998 22.8604L75.8758 22.8614C73.7531 22.8623 72.1742 22.3509 71.1392 21.3274C70.1147 20.3038 69.6021 18.736 69.6013 16.624L69.5998 12.912C69.5989 10.7466 70.1102 9.15711 71.1338 8.14336C72.1681 7.11894 73.7465 6.61697 75.8692 6.63744L78.4932 6.63638C80.6266 6.63552 82.2054 7.14688 83.2298 8.17047C84.2543 9.18339 84.7669 10.7618 84.7678 12.9058L84.7684 14.5058C84.7688 15.4018 84.3209 15.85 83.4249 15.8504L72.2889 15.8549ZM75.8703 9.32544C74.4836 9.30467 73.5397 9.54505 73.0386 10.0466C72.5375 10.5481 72.2872 11.5029 72.2878 12.9109L72.2879 13.1669L82.0799 13.1629L82.0798 12.9069C82.0792 11.5096 81.8281 10.5657 81.3266 10.0752C80.8357 9.5741 79.8916 9.32382 78.4943 9.32438L75.8703 9.32544ZM108.406 6.62428C110.422 6.62347 111.868 7.09755 112.743 8.04653C113.629 8.9955 114.072 10.5687 114.073 12.766L114.076 21.502C114.077 22.398 113.629 22.8462 112.733 22.8465C111.837 22.8469 111.389 22.3991 111.388 21.5031L111.385 12.7671C111.384 11.5511 111.149 10.6712 110.68 10.1274C110.221 9.58355 109.464 9.31186 108.408 9.31228L107.096 9.31281C105.88 9.31331 105.01 9.58566 104.488 10.1299C103.965 10.6741 103.704 11.5542 103.705 12.7702L103.708 21.5062C103.709 22.4022 103.261 22.8504 102.365 22.8507C101.469 22.8511 101.021 22.4033 101.02 21.5073L101.017 12.7713C101.016 11.5553 100.781 10.6754 100.312 10.1316C99.853 9.58774 99.0956 9.31605 98.0396 9.31648L96.7276 9.31701C95.5116 9.3175 94.6423 9.58985 94.1199 10.1341C93.5974 10.6783 93.3365 11.5584 93.337 12.7744L93.3405 21.5104C93.3409 22.4064 92.893 22.8546 91.997 22.8549C91.101 22.8553 90.6529 22.4075 90.6525 21.5115L90.647 7.97547C90.6467 7.07947 91.0945 6.63129 91.9905 6.63092C92.8865 6.63056 93.3347 7.07838 93.335 7.97438L93.3353 8.71038C93.9003 7.97415 94.5188 7.4459 95.1907 7.12563C95.8732 6.79469 96.6838 6.62902 97.6225 6.62864L98.0385 6.62848C99.3611 6.62794 100.401 6.81419 101.159 7.18722C101.916 7.54958 102.492 8.14134 102.887 8.96252C103.452 8.11962 104.049 7.52205 104.679 7.16979C105.319 6.80687 106.124 6.62521 107.094 6.62481L108.406 6.62428Z" fill="black"/>
<path d="M121.747 22.8429C120.851 22.8433 120.403 22.3954 120.402 21.4994L120.395 2.49143C120.394 1.59543 120.842 1.14725 121.738 1.14689L130.09 1.14351C131.786 1.14283 133.088 1.5903 133.995 2.48593C134.912 3.38156 135.372 4.66138 135.372 6.32538L135.373 7.18938C135.373 8.62938 134.92 9.74423 134.014 10.5339C135.71 11.4826 136.559 13.2156 136.56 15.7329L136.561 16.8209C136.561 18.7836 136.039 20.2771 134.994 21.3015C133.96 22.326 132.467 22.8386 130.515 22.8393L121.747 22.8429ZM123.09 20.1543L130.514 20.1513C131.719 20.1509 132.578 19.8945 133.09 19.3823C133.612 18.8594 133.873 18.006 133.873 16.822L133.872 15.734C133.872 14.55 133.621 13.7074 133.119 13.2063C132.618 12.6945 131.748 12.4388 130.511 12.4393L123.087 12.4423L123.09 20.1543ZM123.086 9.75435L130.67 9.75128C131.448 9.75096 131.976 9.51075 132.253 9.03064C132.541 8.55052 132.685 7.93713 132.685 7.19046L132.684 6.32646C132.684 5.39846 132.492 4.75321 132.108 4.3907C131.723 4.01752 131.051 3.83112 130.091 3.83151L123.083 3.83435L123.086 9.75435ZM147.438 22.8325C145.316 22.8334 143.737 22.322 142.702 21.2984C141.677 20.2748 141.165 18.707 141.164 16.595L141.162 12.883C141.161 10.739 141.673 9.16016 142.696 8.14642C143.731 7.122 145.309 6.60936 147.432 6.6085L150.056 6.60744C152.189 6.60658 153.768 7.11794 154.792 8.14152C155.817 9.16511 156.329 10.7436 156.33 12.8769L156.332 16.5569C156.333 18.6796 155.821 20.2584 154.798 21.2935C153.774 22.3179 152.196 22.8306 150.062 22.8314L147.438 22.8325ZM143.852 16.5939C143.852 17.9699 144.103 18.9085 144.605 19.4096C145.106 19.9001 146.051 20.1451 147.437 20.1445L150.061 20.1434C151.459 20.1429 152.402 19.8918 152.893 19.3903C153.394 18.8888 153.644 17.9447 153.644 16.558L153.642 12.878C153.642 11.4807 153.391 10.5368 152.889 10.0463C152.398 9.54516 151.454 9.29487 150.057 9.29544L147.433 9.2965C146.505 9.29688 145.78 9.40384 145.257 9.61738C144.745 9.82025 144.382 10.1831 144.169 10.7058C143.956 11.2179 143.85 11.9433 143.85 12.8819L143.852 16.5939ZM167.72 22.8243C165.597 22.8252 164.018 22.3138 162.983 21.2902C161.958 20.2666 161.446 18.6988 161.445 16.5868L161.444 12.8748C161.443 10.7308 161.954 9.15196 162.978 8.13821C164.012 7.11379 165.59 6.60116 167.713 6.6003L170.337 6.59924C172.47 6.59837 174.049 7.10973 175.074 8.13332C176.098 9.15691 176.611 10.7354 176.612 12.8687L176.613 16.5487C176.614 18.6714 176.102 20.2502 175.079 21.2853C174.055 22.3097 172.477 22.8224 170.344 22.8232L167.72 22.8243ZM164.133 16.5857C164.134 17.9617 164.385 18.9003 164.886 19.4014C165.388 19.8919 166.332 20.1369 167.718 20.1363L170.342 20.1352C171.74 20.1347 172.684 19.8836 173.174 19.3821C173.675 18.8806 173.926 17.9365 173.925 16.5498L173.924 12.8698C173.923 11.4725 173.672 10.5286 173.17 10.0381C172.679 9.53696 171.735 9.28667 170.338 9.28724L167.714 9.2883C166.786 9.28867 166.061 9.39563 165.538 9.60918C165.026 9.81205 164.664 10.1749 164.451 10.6976C164.237 11.2097 164.131 11.9351 164.132 12.8737L164.133 16.5857ZM183.841 22.8178C182.945 22.8181 182.497 22.3703 182.496 21.4743L182.488 1.63432C182.488 0.738319 182.936 0.290138 183.832 0.289776C184.728 0.289414 185.176 0.737232 185.176 1.63323L185.181 13.6492L192.794 7.10215C193.477 6.51521 194.106 6.55762 194.682 7.22939C195.269 7.91182 195.227 8.54117 194.555 9.11744L188.717 14.1598L194.304 20.5095C194.901 21.2026 194.87 21.832 194.209 22.3976C193.526 22.9845 192.886 22.9421 192.289 22.2704L186.67 15.9366L185.183 17.2172L185.184 21.4732C185.185 22.3692 184.737 22.8174 183.841 22.8178Z" fill="#45ACF5"/>
</svg>
